PathFileType	4	(X/Y/Z)	5_coords_data.trc
DataRate	CameraRate	NumFrames	NumMarkers	Units	OrigDataRate	OrigDataStartFrame	OrigNumFrames
30.0	30.0	7	21	m	30.0	39	67
Frame#	Time	THUMB_TIP	THUMB_IP	THUMB_MCP	THUMB_CMC	INDEX_TIP	INDEX_DIP	INDEX_PIP	INDEX_MCP	MIDDLE_TIP	MIDDLE_DIP	MIDDLE_PIP	MIDDLE_MCP	RING_TIP	RING_DIP	RING_PIP	RING_MCP	PINKY_TIP	PINKY_DIP	PINKY_PIP	PINKY_MCP	WRIST
X1	Y1	Z1	X2	Y2	Z2	X3	Y3	Z3	X4	Y4	Z4	X5	Y5	Z5	X6	Y6	Z6	X7	Y7	Z7	X8	Y8	Z8	X9	Y9	Z9	X10	Y10	Z10	X11	Y11	Z11	X12	Y12	Z12	X13	Y13	Z13	X14	Y14	Z14	X15	Y15	Z15	X16	Y16	Z16	X17	Y17	Z17	X18	Y18	Z18	X19	Y19	Z19	X20	Y20	Z20	X21	Y21	Z21
37	1.2666666666666608	0.5038736447501845	-0.029153030110531053	-0.16361108123860574	0.4949508026727746	-0.02926421394533174	-0.14243631967167225	0.47017902522223287	-0.027912401677110288	-0.12363866967141113	0.4699275198057269	-0.028556535088848145	-0.07903584647406914	0.5723693182883034	0.02361357694990507	-0.16283984527684564	0.5564164959826643	0.023962242309954807	-0.15427328862020687	0.5345191766412594	0.023768333599271663	-0.14192502404284818	0.5008578692606218	0.012622347152094315	-0.11833859859206008	0.59635526140238	0.02557750478609966	-0.1363438961672594	0.5792252746448625	0.025891033602778446	-0.13047318467985136	0.5521613530785552	0.026683958046463507	-0.11968777925031962	0.5124706601963785	0.018870687685183518	-0.1007207123765439	0.6006519316167646	0.024460240489983076	-0.11203299101564693	0.5839651167093529	0.025311153641389694	-0.10526348918356582	0.5606825200312787	0.026752438158019975	-0.09654435104563899	0.5232672629909888	0.01768647705567472	-0.08419009170321728	0.6000458558266278	0.01521205221209998	-0.08118351737485208	0.5835628726458804	0.015581482235069277	-0.07658191038149403	0.563042986337245	0.014886900333400788	-0.07219285115854496	0.5283898016756384	0.00631645879478826	-0.06703651761213597	0.4622830810018608	-0.023011742144276925	-0.051989820119430985
38	1.299999999999994	0.5038495867458507	-0.02921141948930106	-0.16363499449259028	0.4949415195036089	-0.02930085019459061	-0.14245391000296492	0.4701834979108759	-0.027927775186220027	-0.12363968581393286	0.46992119759237927	-0.028560764507945757	-0.07903676524743303	0.5725984560994941	0.0233098082595532	-0.16263327806099215	0.5566253488281067	0.023711342817130276	-0.1541069298335374	0.5346947254698935	0.023595976207069325	-0.14181692240207183	0.5009276605075687	0.012579321263342047	-0.11832107741447917	0.5964765617830876	0.025252377579257912	-0.13623991113719083	0.5793394815681002	0.02560930840225284	-0.13039242602881418	0.5522656575896528	0.026491391473479675	-0.11963884361923996	0.5125330172121715	0.018816192191876357	-0.10070325475537276	0.6007308692149543	0.024236121224457396	-0.11193524267100805	0.5840389507291704	0.02512330156928977	-0.10518300094698113	0.5607521927587937	0.02662133505898745	-0.09648456557659171	0.5233034373779368	0.017659073727564478	-0.08415616640021756	0.6000276579674091	0.015309385946107534	-0.081167187280622	0.5835480211226096	0.01566847064589394	-0.07655279375146684	0.563030664154872	0.014971104027499793	-0.07215236628836985	0.5283982242888192	0.006324203261417138	-0.0669843234222785	0.4622830810018608	-0.023011742144276925	-0.051989820119430985
39	1.3333333333333275	0.504186144794824	-0.029402828596562847	-0.16349307348599101	0.49520626549066216	-0.029436492333435926	-0.14234217198190602	0.470380131799348	-0.028057122581083505	-0.12361837896266736	0.4699803020746195	-0.028584570105177343	-0.07901510626546998	0.5729196887241464	0.022662118194200165	-0.1622785735732345	0.5569107830660672	0.02322117879601382	-0.15382858003038363	0.5349232863885794	0.023310640549613626	-0.1416403964310073	0.5009505815157446	0.012555689495525657	-0.1183203954565768	0.5965680213255454	0.024722507937516958	-0.1361608944444349	0.5794264749814494	0.025193468552490605	-0.13033461046299755	0.5523490705493662	0.026243158481540463	-0.11960512444202423	0.5125583460341647	0.01878303080721777	-0.10070558321377882	0.6007736744111176	0.02389492329423537	-0.11188078259204645	0.5840797735202615	0.024850064688811457	-0.10514272812783804	0.5607938992494874	0.026454469311282702	-0.09646091240455204	0.5232976438911534	0.017677974788985695	-0.08414324980149662	0.5999621560657632	0.01541938430333567	-0.08125850500686693	0.5834932148056685	0.015797067170483903	-0.07660755570340066	0.5629833284646492	0.015119973072214465	-0.0721692987414213	0.5283835698323319	0.006381053661780212	-0.06693752646777157	0.4622830810018609	-0.023011742144276925	-0.051989820119430985
40	1.3666666666666607	0.5048395700929685	-0.029587072446045304	-0.16319035233262313	0.4957105786783377	-0.029575154888247135	-0.14210335696288373	0.47073228277587165	-0.028243033539183338	-0.12357958341319317	0.4700946291220245	-0.02860792240337673	-0.0789774505725484	0.5732621188763065	0.02171665959399216	-0.16182561766706563	0.5572133821742717	0.022542971782973598	-0.153473656314479	0.535158421194204	0.022966885614959076	-0.14141509809922215	0.5009129218055015	0.012590036841555685	-0.11832391200685577	0.5965631686853772	0.024014311882919026	-0.1361717261419892	0.5794273756882128	0.0246720926729036	-0.13034661474471476	0.5523611415924953	0.025994805567491674	-0.11961912890346049	0.5125173728624444	0.018810067026864052	-0.10072464435137393	0.6007296039398231	0.02348048467363173	-0.11193168757917782	0.5840460575311934	0.024561308261672687	-0.10518697857117482	0.5607727939830163	0.026325355628049274	-0.09650231854868299	0.5232393048234733	0.017760901630351822	-0.08414885129321986	0.5998180048560552	0.015529827748052782	-0.08153000181297926	0.5833725313631113	0.01598058548213044	-0.07680314037455649	0.5628797180390198	0.015362807225568265	-0.07227821263041961	0.52832689299509	0.006524893262218723	-0.06690447936015004	0.4622830810018608	-0.023011742144276925	-0.051989820119430985
41	1.3999999999999937	0.505730459636783	-0.0296857137395089	-0.16276175446996266	0.4963800344913133	-0.029652271459642887	-0.14177203243243006	0.47119336183610827	-0.028420780169770232	-0.12352552729411617	0.4702476296871616	-0.028631113794515328	-0.07892786647576439	0.5735633298396379	0.02053239626148151	-0.1613396434395721	0.5574804611536158	0.021713695013396928	-0.1530967150711526	0.5353622920148567	0.022570870497383932	-0.14117775214903136	0.5008054404651527	0.012675766030319724	-0.11834034834392237	0.5964543479615457	0.02313247482255576	-0.13629674216591636	0.5793356633134831	0.024030117843470644	-0.13045338072517076	0.5522996285728228	0.025724602770687777	-0.11970205074543122	0.5124154548553639	0.018885882017254496	-0.10076445569399645	0.6005988474497947	0.02295151018331254	-0.11211083412303569	0.583936874739853	0.02420666235583524	-0.1053430236619653	0.5606944307162621	0.026200363498473322	-0.09662557388785781	0.5231318635498837	0.017891869796030857	-0.08418598730840132	0.5996148147215181	0.015564789431758652	-0.08199063849256316	0.583208009754454	0.01615414192049014	-0.07714611432431434	0.5627409068406649	0.015633998662687887	-0.072494322378437	0.5282460690034464	0.0067084386642000116	-0.06689753827527617	0.4622830810018609	-0.023011742144276925	-0.051989820119430985
42	1.4333333333333271	0.5068069574314559	-0.02964217525213142	-0.16223190033814555	0.497175612306166	-0.02962735500587388	-0.14136956654161512	0.4717402543303767	-0.028575455218657453	-0.1234599023493107	0.4704265020591468	-0.02864644059085275	-0.07887112555461961	0.5737583140648561	0.019310600785484522	-0.16085124424512068	0.5576519078041652	0.020882727603263485	-0.15272030981946	0.5354777257930218	0.022209967361091265	-0.1409494169152692	0.5006058458383023	0.012812115771242638	-0.1183824395386065	0.5962157834645202	0.022223048804478784	-0.13652337850867893	0.5791262013824364	0.02339710377628501	-0.13064394153028575	0.5521380741713374	0.025507455690667924	-0.11984593456441489	0.5122296642358416	0.019027060376854976	-0.10083353823998667	0.6003635483103257	0.022438172773005305	-0.11239579373741604	0.5837352980490164	0.023891952600030852	-0.10558493347884343	0.5605381245328782	0.02614693009123259	-0.09681075566115852	0.5229587039966371	0.01809514956322611	-0.0842538127016178	0.5993449572328738	0.015606399846774477	-0.08256988660241105	0.5829886164727136	0.016368116026607593	-0.0775809082101041	0.5625544899651209	0.015976658626374984	-0.07277411572701337	0.5281250653360197	0.006965528019592826	-0.06691769225388972	0.4622830810018608	-0.023011742144276925	-0.051989820119430985
43	1.4666666666666603	0.5079665448764088	-0.029439526388145287	-0.1616417041824365	0.49802055349632524	-0.02948349551946483	-0.1409275707904069	0.4723197945473767	-0.028682867739683537	-0.12338761683931909	0.47061124427501455	-0.028657342558819243	-0.07881217287706616	0.5738514958574187	0.01808037548929231	-0.1603679338791399	0.5577352389242863	0.020067039293017674	-0.15234799439082522	0.5355197651627212	0.021887995060138055	-0.14072187385801607	0.5003348291081817	0.013004531942866548	-0.11843419897071455	0.5958687630426939	0.02130290890037978	-0.1368351474446735	0.5788204565902367	0.022778852465731858	-0.13090414097907238	0.5518977190654837	0.025325906055701397	-0.12003729819088965	0.5119806872933319	0.01922302644808649	-0.10091837154748262	0.600041172465359	0.021930256956579464	-0.11276422283261878	0.5834583341986544	0.023609985205736317	-0.10589487147828372	0.5603185069807177	0.026148863900196107	-0.09704713333235856	0.5227349225551502	0.01835625576414357	-0.08434003790640981	0.5990146926268174	0.01563313727511506	-0.08326764341309872	0.5827226603367426	0.01660389632736592	-0.07810747764816162	0.5623308385973792	0.016365327435990618	-0.07311461173427014	0.5279745963101669	0.007270244845177909	-0.0669655028908151	0.462283081001861	-0.023011742144276925	-0.051989820119430985
